<svg width="501" height="496" viewBox="0 0 501 496" fill="none" xmlns="http://www.w3.org/2000/svg">
<path d="M123 26.0085V478.009" stroke="url(#paint0_linear_619_45)" stroke-opacity="0.4" stroke-width="3" stroke-linecap="round" stroke-dasharray="10 10"/>
<path d="M242 26.0085V478.009" stroke="url(#paint1_linear_619_45)" stroke-opacity="0.4" stroke-width="3" stroke-linecap="round" stroke-dasharray="10 10"/>
<path d="M361 26.0085V478.009" stroke="url(#paint2_linear_619_45)" stroke-opacity="0.4" stroke-width="3" stroke-linecap="round" stroke-dasharray="10 10"/>
<path d="M2 2V467.017" stroke="url(#paint3_linear_619_45)" stroke-opacity="0.9" stroke-width="3" stroke-linecap="round"/>
<path d="M19.108 481.959L17.176 482.995L16.7 482.029L19.444 480.559H20.2V490.009H19.108V481.959ZM22.6776 486.817V483.751C22.6776 482.799 23.0182 482.01 23.6996 481.385C24.3902 480.741 25.2349 480.419 26.2336 480.419C27.2416 480.419 28.0816 480.741 28.7536 481.385C29.4349 482.01 29.7756 482.799 29.7756 483.751V486.817C29.7756 487.769 29.4396 488.562 28.7676 489.197C28.0862 489.831 27.2416 490.149 26.2336 490.149C25.2349 490.149 24.3902 489.831 23.6996 489.197C23.0182 488.571 22.6776 487.778 22.6776 486.817ZM23.7696 483.737V486.831C23.7696 487.475 24.0076 488.016 24.4836 488.455C24.9502 488.884 25.5336 489.099 26.2336 489.099C26.9336 489.099 27.5122 488.884 27.9696 488.455C28.4456 488.016 28.6836 487.475 28.6836 486.831V483.737C28.6836 483.102 28.4456 482.565 27.9696 482.127C27.5029 481.688 26.9242 481.469 26.2336 481.469C25.5522 481.469 24.9689 481.688 24.4836 482.127C24.0076 482.565 23.7696 483.102 23.7696 483.737Z" fill="#D4D4D4"/>
<path d="M138.852 483.261C138.852 482.766 138.651 482.346 138.25 482.001C137.839 481.646 137.359 481.469 136.808 481.469C136.313 481.469 135.87 481.613 135.478 481.903C135.086 482.183 134.792 482.575 134.596 483.079L133.588 482.603C133.868 481.931 134.293 481.399 134.862 481.007C135.431 480.615 136.08 480.419 136.808 480.419C137.685 480.419 138.437 480.694 139.062 481.245C139.678 481.795 139.986 482.458 139.986 483.233C139.986 483.737 139.832 484.231 139.524 484.717C139.216 485.193 138.712 485.767 138.012 486.439L135.394 488.959H140.126V490.009H133.686V489.211L137.284 485.725C137.853 485.155 138.255 484.698 138.488 484.353C138.731 483.998 138.852 483.634 138.852 483.261ZM141.674 486.817V483.751C141.674 482.799 142.014 482.01 142.696 481.385C143.386 480.741 144.231 480.419 145.23 480.419C146.238 480.419 147.078 480.741 147.75 481.385C148.431 482.01 148.772 482.799 148.772 483.751V486.817C148.772 487.769 148.436 488.562 147.764 489.197C147.082 489.831 146.238 490.149 145.23 490.149C144.231 490.149 143.386 489.831 142.696 489.197C142.014 488.571 141.674 487.778 141.674 486.817ZM142.766 483.737V486.831C142.766 487.475 143.004 488.016 143.48 488.455C143.946 488.884 144.53 489.099 145.23 489.099C145.93 489.099 146.508 488.884 146.966 488.455C147.442 488.016 147.68 487.475 147.68 486.831V483.737C147.68 483.102 147.442 482.565 146.966 482.127C146.499 481.688 145.92 481.469 145.23 481.469C144.548 481.469 143.965 481.688 143.48 482.127C143.004 482.565 142.766 483.102 142.766 483.737Z" fill="#D4D4D4"/>
<path d="M258.88 483.051C258.88 482.593 258.679 482.22 258.278 481.931C257.886 481.623 257.391 481.469 256.794 481.469C256.318 481.469 255.893 481.571 255.52 481.777C255.147 481.982 254.876 482.257 254.708 482.603L253.728 482.113C253.98 481.59 254.377 481.179 254.918 480.881C255.469 480.573 256.094 480.419 256.794 480.419C257.718 480.419 258.483 480.671 259.09 481.175C259.706 481.669 260.014 482.285 260.014 483.023C260.014 483.471 259.888 483.881 259.636 484.255C259.393 484.619 259.048 484.913 258.6 485.137C259.104 485.351 259.501 485.664 259.79 486.075C260.089 486.476 260.238 486.924 260.238 487.419C260.238 488.203 259.911 488.851 259.258 489.365C258.605 489.887 257.797 490.149 256.836 490.149C256.08 490.149 255.408 489.985 254.82 489.659C254.241 489.323 253.835 488.875 253.602 488.315L254.652 487.923C254.801 488.277 255.072 488.562 255.464 488.777C255.856 488.991 256.313 489.099 256.836 489.099C257.48 489.099 258.021 488.935 258.46 488.609C258.889 488.291 259.104 487.881 259.104 487.377C259.104 486.901 258.889 486.504 258.46 486.187C258.031 485.86 257.508 485.697 256.892 485.697H256.178V484.675H256.696C257.331 484.675 257.849 484.521 258.25 484.213C258.67 483.905 258.88 483.517 258.88 483.051ZM261.783 486.817V483.751C261.783 482.799 262.124 482.01 262.805 481.385C263.496 480.741 264.34 480.419 265.339 480.419C266.347 480.419 267.187 480.741 267.859 481.385C268.54 482.01 268.881 482.799 268.881 483.751V486.817C268.881 487.769 268.545 488.562 267.873 489.197C267.192 489.831 266.347 490.149 265.339 490.149C264.34 490.149 263.496 489.831 262.805 489.197C262.124 488.571 261.783 487.778 261.783 486.817ZM262.875 483.737V486.831C262.875 487.475 263.113 488.016 263.589 488.455C264.056 488.884 264.639 489.099 265.339 489.099C266.039 489.099 266.618 488.884 267.075 488.455C267.551 488.016 267.789 487.475 267.789 486.831V483.737C267.789 483.102 267.551 482.565 267.075 482.127C266.608 481.688 266.03 481.469 265.339 481.469C264.658 481.469 264.074 481.688 263.589 482.127C263.113 482.565 262.875 483.102 262.875 483.737Z" fill="#D4D4D4"/>
<path d="M377.866 490.009V488.035H372.602V486.985L377.936 480.559H378.958V486.985H380.344V488.035H378.958V490.009H377.866ZM377.866 482.225L373.932 486.985H377.866V482.225ZM381.685 486.817V483.751C381.685 482.799 382.026 482.01 382.707 481.385C383.398 480.741 384.243 480.419 385.241 480.419C386.249 480.419 387.089 480.741 387.761 481.385C388.443 482.01 388.783 482.799 388.783 483.751V486.817C388.783 487.769 388.447 488.562 387.775 489.197C387.094 489.831 386.249 490.149 385.241 490.149C384.243 490.149 383.398 489.831 382.707 489.197C382.026 488.571 381.685 487.778 381.685 486.817ZM382.777 483.737V486.831C382.777 487.475 383.015 488.016 383.491 488.455C383.958 488.884 384.541 489.099 385.241 489.099C385.941 489.099 386.52 488.884 386.977 488.455C387.453 488.016 387.691 487.475 387.691 486.831V483.737C387.691 483.102 387.453 482.565 386.977 482.127C386.511 481.688 385.932 481.469 385.241 481.469C384.56 481.469 383.977 481.688 383.491 482.127C383.015 482.565 382.777 483.102 382.777 483.737Z" fill="#D4D4D4"/>
<path d="M7 221.009L499 221.009" stroke="url(#paint4_linear_619_45)" stroke-opacity="0.9" stroke-width="3" stroke-linecap="round"/>
<defs>
<linearGradient id="paint0_linear_619_45" x1="123.5" y1="26.0085" x2="123.5" y2="478.009" gradientUnits="userSpaceOnUse">
<stop offset="0.0260417" stop-color="#0B0B0F"/>
<stop offset="0.505208" stop-color="#2163FF"/>
<stop offset="1" stop-color="#0B0A13"/>
</linearGradient>
<linearGradient id="paint1_linear_619_45" x1="242.5" y1="26.0085" x2="242.5" y2="478.009" gradientUnits="userSpaceOnUse">
<stop offset="0.0260417" stop-color="#0B0B0F"/>
<stop offset="0.505208" stop-color="#2163FF"/>
<stop offset="1" stop-color="#0B0A13"/>
</linearGradient>
<linearGradient id="paint2_linear_619_45" x1="361.5" y1="26.0085" x2="361.5" y2="478.009" gradientUnits="userSpaceOnUse">
<stop offset="0.0260417" stop-color="#0B0B0F"/>
<stop offset="0.505208" stop-color="#2163FF"/>
<stop offset="1" stop-color="#0B0A13"/>
</linearGradient>
<linearGradient id="paint3_linear_619_45" x1="2" y1="-91.8767" x2="2" y2="558.711" gradientUnits="userSpaceOnUse">
<stop offset="0.015625" stop-color="#0C0A17"/>
<stop offset="0.484375" stop-color="#3874FF"/>
<stop offset="1" stop-color="#0B0A13"/>
</linearGradient>
<linearGradient id="paint4_linear_619_45" x1="-92.3239" y1="221.009" x2="596.014" y2="221.009" gradientUnits="userSpaceOnUse">
<stop offset="0.015625" stop-color="#0C0A17"/>
<stop offset="0.484375" stop-color="#3874FF"/>
<stop offset="1" stop-color="#0B0A13"/>
</linearGradient>
</defs>
</svg>
