<svg width="350" height="334" viewBox="0 0 350 334" fill="none" xmlns="http://www.w3.org/2000/svg">
<path d="M95.3159 18.1345V321.893" stroke="url(#paint0_linear_2_466)" stroke-opacity="0.4" stroke-width="3" stroke-linecap="round" stroke-dasharray="10 10"/>
<path d="M175.288 18.1345V321.893" stroke="url(#paint1_linear_2_466)" stroke-opacity="0.4" stroke-width="3" stroke-linecap="round" stroke-dasharray="10 10"/>
<path d="M255.26 18.1345V321.893" stroke="url(#paint2_linear_2_466)" stroke-opacity="0.4" stroke-width="3" stroke-linecap="round" stroke-dasharray="10 10"/>
<path d="M14 2V314.507" stroke="url(#paint3_linear_2_466)" stroke-opacity="0.9" stroke-width="3" stroke-linecap="round"/>
<g filter="url(#filter0_d_2_466)">
<rect x="312.382" y="168.67" width="12.7686" height="288.974" rx="6.38431" transform="rotate(90 312.382 168.67)" fill="#44FACE"/>
</g>
<g filter="url(#filter1_d_2_466)">
<rect x="74.4829" y="256.034" width="12.7686" height="51.0744" rx="6.38431" transform="rotate(90 74.4829 256.034)" fill="#00CF6C"/>
</g>
<g filter="url(#filter2_d_2_466)">
<rect x="147.734" y="212.352" width="12.7686" height="124.326" rx="6.38431" transform="rotate(90 147.734 212.352)" fill="#00FFA3"/>
</g>
<g filter="url(#filter3_d_2_466)">
<rect x="312.382" y="118.267" width="12.7686" height="288.974" rx="6.38431" transform="rotate(90 312.382 118.267)" fill="#09A2FE"/>
</g>
<g filter="url(#filter4_d_2_466)">
<rect x="188.056" y="74.5852" width="12.7686" height="164.648" rx="6.38431" transform="rotate(90 188.056 74.5852)" fill="#0C62EE"/>
</g>
<g filter="url(#filter5_d_2_466)">
<rect x="95.3159" y="31.5752" width="12.7686" height="71.9074" rx="6.38431" transform="rotate(90 95.3159 31.5752)" fill="#2B40BF"/>
</g>
<path d="M17.3601 149.181L348 149.181" stroke="url(#paint4_linear_2_466)" stroke-opacity="0.9" stroke-width="3" stroke-linecap="round"/>
<path d="M31.108 320.95L29.176 321.986L28.7 321.02L31.444 319.55H32.2V329H31.108V320.95ZM34.6776 325.808V322.742C34.6776 321.79 35.0182 321.001 35.6996 320.376C36.3902 319.732 37.2349 319.41 38.2336 319.41C39.2416 319.41 40.0816 319.732 40.7536 320.376C41.4349 321.001 41.7756 321.79 41.7756 322.742V325.808C41.7756 326.76 41.4396 327.553 40.7676 328.188C40.0862 328.823 39.2416 329.14 38.2336 329.14C37.2349 329.14 36.3902 328.823 35.6996 328.188C35.0182 327.563 34.6776 326.769 34.6776 325.808ZM35.7696 322.728V325.822C35.7696 326.466 36.0076 327.007 36.4836 327.446C36.9502 327.875 37.5336 328.09 38.2336 328.09C38.9336 328.09 39.5122 327.875 39.9696 327.446C40.4456 327.007 40.6836 326.466 40.6836 325.822V322.728C40.6836 322.093 40.4456 321.557 39.9696 321.118C39.5029 320.679 38.9242 320.46 38.2336 320.46C37.5522 320.46 36.9689 320.679 36.4836 321.118C36.0076 321.557 35.7696 322.093 35.7696 322.728Z" fill="#D4D4D4"/>
<path d="M111.852 322.252C111.852 321.757 111.651 321.337 111.25 320.992C110.839 320.637 110.359 320.46 109.808 320.46C109.313 320.46 108.87 320.605 108.478 320.894C108.086 321.174 107.792 321.566 107.596 322.07L106.588 321.594C106.868 320.922 107.293 320.39 107.862 319.998C108.431 319.606 109.08 319.41 109.808 319.41C110.685 319.41 111.437 319.685 112.062 320.236C112.678 320.787 112.986 321.449 112.986 322.224C112.986 322.728 112.832 323.223 112.524 323.708C112.216 324.184 111.712 324.758 111.012 325.43L108.394 327.95H113.126V329H106.686V328.202L110.284 324.716C110.853 324.147 111.255 323.689 111.488 323.344C111.731 322.989 111.852 322.625 111.852 322.252ZM114.674 325.808V322.742C114.674 321.79 115.014 321.001 115.696 320.376C116.386 319.732 117.231 319.41 118.23 319.41C119.238 319.41 120.078 319.732 120.75 320.376C121.431 321.001 121.772 321.79 121.772 322.742V325.808C121.772 326.76 121.436 327.553 120.764 328.188C120.082 328.823 119.238 329.14 118.23 329.14C117.231 329.14 116.386 328.823 115.696 328.188C115.014 327.563 114.674 326.769 114.674 325.808ZM115.766 322.728V325.822C115.766 326.466 116.004 327.007 116.48 327.446C116.946 327.875 117.53 328.09 118.23 328.09C118.93 328.09 119.508 327.875 119.966 327.446C120.442 327.007 120.68 326.466 120.68 325.822V322.728C120.68 322.093 120.442 321.557 119.966 321.118C119.499 320.679 118.92 320.46 118.23 320.46C117.548 320.46 116.965 320.679 116.48 321.118C116.004 321.557 115.766 322.093 115.766 322.728Z" fill="#D4D4D4"/>
<path d="M191.88 322.042C191.88 321.585 191.679 321.211 191.278 320.922C190.886 320.614 190.391 320.46 189.794 320.46C189.318 320.46 188.893 320.563 188.52 320.768C188.147 320.973 187.876 321.249 187.708 321.594L186.728 321.104C186.98 320.581 187.377 320.171 187.918 319.872C188.469 319.564 189.094 319.41 189.794 319.41C190.718 319.41 191.483 319.662 192.09 320.166C192.706 320.661 193.014 321.277 193.014 322.014C193.014 322.462 192.888 322.873 192.636 323.246C192.393 323.61 192.048 323.904 191.6 324.128C192.104 324.343 192.501 324.655 192.79 325.066C193.089 325.467 193.238 325.915 193.238 326.41C193.238 327.194 192.911 327.843 192.258 328.356C191.605 328.879 190.797 329.14 189.836 329.14C189.08 329.14 188.408 328.977 187.82 328.65C187.241 328.314 186.835 327.866 186.602 327.306L187.652 326.914C187.801 327.269 188.072 327.553 188.464 327.768C188.856 327.983 189.313 328.09 189.836 328.09C190.48 328.09 191.021 327.927 191.46 327.6C191.889 327.283 192.104 326.872 192.104 326.368C192.104 325.892 191.889 325.495 191.46 325.178C191.031 324.851 190.508 324.688 189.892 324.688H189.178V323.666H189.696C190.331 323.666 190.849 323.512 191.25 323.204C191.67 322.896 191.88 322.509 191.88 322.042ZM194.783 325.808V322.742C194.783 321.79 195.124 321.001 195.805 320.376C196.496 319.732 197.34 319.41 198.339 319.41C199.347 319.41 200.187 319.732 200.859 320.376C201.54 321.001 201.881 321.79 201.881 322.742V325.808C201.881 326.76 201.545 327.553 200.873 328.188C200.192 328.823 199.347 329.14 198.339 329.14C197.34 329.14 196.496 328.823 195.805 328.188C195.124 327.563 194.783 326.769 194.783 325.808ZM195.875 322.728V325.822C195.875 326.466 196.113 327.007 196.589 327.446C197.056 327.875 197.639 328.09 198.339 328.09C199.039 328.09 199.618 327.875 200.075 327.446C200.551 327.007 200.789 326.466 200.789 325.822V322.728C200.789 322.093 200.551 321.557 200.075 321.118C199.608 320.679 199.03 320.46 198.339 320.46C197.658 320.46 197.074 320.679 196.589 321.118C196.113 321.557 195.875 322.093 195.875 322.728Z" fill="#D4D4D4"/>
<path d="M271.866 329V327.026H266.602V325.976L271.936 319.55H272.958V325.976H274.344V327.026H272.958V329H271.866ZM271.866 321.216L267.932 325.976H271.866V321.216ZM275.685 325.808V322.742C275.685 321.79 276.026 321.001 276.707 320.376C277.398 319.732 278.243 319.41 279.241 319.41C280.249 319.41 281.089 319.732 281.761 320.376C282.443 321.001 282.783 321.79 282.783 322.742V325.808C282.783 326.76 282.447 327.553 281.775 328.188C281.094 328.823 280.249 329.14 279.241 329.14C278.243 329.14 277.398 328.823 276.707 328.188C276.026 327.563 275.685 326.769 275.685 325.808ZM276.777 322.728V325.822C276.777 326.466 277.015 327.007 277.491 327.446C277.958 327.875 278.541 328.09 279.241 328.09C279.941 328.09 280.52 327.875 280.977 327.446C281.453 327.007 281.691 326.466 281.691 325.822V322.728C281.691 322.093 281.453 321.557 280.977 321.118C280.511 320.679 279.932 320.46 279.241 320.46C278.56 320.46 277.977 320.679 277.491 321.118C277.015 321.557 276.777 322.093 276.777 322.728Z" fill="#D4D4D4"/>
<defs>
<filter id="filter0_d_2_466" x="0.408447" y="143.67" width="334.974" height="58.7686" filterUnits="userSpaceOnUse" color-interpolation-filters="sRGB">
<feFlood flood-opacity="0" result="BackgroundImageFix"/>
<feColorMatrix in="SourceAlpha" type="matrix" values="0 0 0 0 0 0 0 0 0 0 0 0 0 0 0 0 0 0 127 0" result="hardAlpha"/>
<feOffset dy="-2"/>
<feGaussianBlur stdDeviation="11.5"/>
<feComposite in2="hardAlpha" operator="out"/>
<feColorMatrix type="matrix" values="0 0 0 0 0.027451 0 0 0 0 0.996078 0 0 0 0 0.879843 0 0 0 0.8 0"/>
<feBlend mode="normal" in2="BackgroundImageFix" result="effect1_dropShadow_2_466"/>
<feBlend mode="normal" in="SourceGraphic" in2="effect1_dropShadow_2_466" result="shape"/>
</filter>
<filter id="filter1_d_2_466" x="0.408447" y="231.034" width="97.0745" height="58.7686" filterUnits="userSpaceOnUse" color-interpolation-filters="sRGB">
<feFlood flood-opacity="0" result="BackgroundImageFix"/>
<feColorMatrix in="SourceAlpha" type="matrix" values="0 0 0 0 0 0 0 0 0 0 0 0 0 0 0 0 0 0 127 0" result="hardAlpha"/>
<feOffset dy="-2"/>
<feGaussianBlur stdDeviation="11.5"/>
<feComposite in2="hardAlpha" operator="out"/>
<feColorMatrix type="matrix" values="0 0 0 0 0.027451 0 0 0 0 0.996078 0 0 0 0 0.879843 0 0 0 0.8 0"/>
<feBlend mode="normal" in2="BackgroundImageFix" result="effect1_dropShadow_2_466"/>
<feBlend mode="normal" in="SourceGraphic" in2="effect1_dropShadow_2_466" result="shape"/>
</filter>
<filter id="filter2_d_2_466" x="0.408447" y="187.352" width="170.326" height="58.7686" filterUnits="userSpaceOnUse" color-interpolation-filters="sRGB">
<feFlood flood-opacity="0" result="BackgroundImageFix"/>
<feColorMatrix in="SourceAlpha" type="matrix" values="0 0 0 0 0 0 0 0 0 0 0 0 0 0 0 0 0 0 127 0" result="hardAlpha"/>
<feOffset dy="-2"/>
<feGaussianBlur stdDeviation="11.5"/>
<feComposite in2="hardAlpha" operator="out"/>
<feColorMatrix type="matrix" values="0 0 0 0 0.027451 0 0 0 0 0.996078 0 0 0 0 0.879843 0 0 0 0.8 0"/>
<feBlend mode="normal" in2="BackgroundImageFix" result="effect1_dropShadow_2_466"/>
<feBlend mode="normal" in="SourceGraphic" in2="effect1_dropShadow_2_466" result="shape"/>
</filter>
<filter id="filter3_d_2_466" x="0.408447" y="93.2673" width="334.974" height="58.7686" filterUnits="userSpaceOnUse" color-interpolation-filters="sRGB">
<feFlood flood-opacity="0" result="BackgroundImageFix"/>
<feColorMatrix in="SourceAlpha" type="matrix" values="0 0 0 0 0 0 0 0 0 0 0 0 0 0 0 0 0 0 127 0" result="hardAlpha"/>
<feOffset dy="-2"/>
<feGaussianBlur stdDeviation="11.5"/>
<feComposite in2="hardAlpha" operator="out"/>
<feColorMatrix type="matrix" values="0 0 0 0 0.163059 0 0 0 0 0.027451 0 0 0 0 0.996078 0 0 0 0.8 0"/>
<feBlend mode="normal" in2="BackgroundImageFix" result="effect1_dropShadow_2_466"/>
<feBlend mode="normal" in="SourceGraphic" in2="effect1_dropShadow_2_466" result="shape"/>
</filter>
<filter id="filter4_d_2_466" x="0.408508" y="49.5852" width="210.648" height="58.7686" filterUnits="userSpaceOnUse" color-interpolation-filters="sRGB">
<feFlood flood-opacity="0" result="BackgroundImageFix"/>
<feColorMatrix in="SourceAlpha" type="matrix" values="0 0 0 0 0 0 0 0 0 0 0 0 0 0 0 0 0 0 127 0" result="hardAlpha"/>
<feOffset dy="-2"/>
<feGaussianBlur stdDeviation="11.5"/>
<feComposite in2="hardAlpha" operator="out"/>
<feColorMatrix type="matrix" values="0 0 0 0 0.163059 0 0 0 0 0.027451 0 0 0 0 0.996078 0 0 0 0.8 0"/>
<feBlend mode="normal" in2="BackgroundImageFix" result="effect1_dropShadow_2_466"/>
<feBlend mode="normal" in="SourceGraphic" in2="effect1_dropShadow_2_466" result="shape"/>
</filter>
<filter id="filter5_d_2_466" x="0.408447" y="6.5752" width="117.907" height="58.7686" filterUnits="userSpaceOnUse" color-interpolation-filters="sRGB">
<feFlood flood-opacity="0" result="BackgroundImageFix"/>
<feColorMatrix in="SourceAlpha" type="matrix" values="0 0 0 0 0 0 0 0 0 0 0 0 0 0 0 0 0 0 127 0" result="hardAlpha"/>
<feOffset dy="-2"/>
<feGaussianBlur stdDeviation="11.5"/>
<feComposite in2="hardAlpha" operator="out"/>
<feColorMatrix type="matrix" values="0 0 0 0 0.163059 0 0 0 0 0.027451 0 0 0 0 0.996078 0 0 0 0.8 0"/>
<feBlend mode="normal" in2="BackgroundImageFix" result="effect1_dropShadow_2_466"/>
<feBlend mode="normal" in="SourceGraphic" in2="effect1_dropShadow_2_466" result="shape"/>
</filter>
<linearGradient id="paint0_linear_2_466" x1="95.8159" y1="18.1345" x2="95.8159" y2="321.893" gradientUnits="userSpaceOnUse">
<stop offset="0.0260417" stop-color="#0B0B0F"/>
<stop offset="0.505208" stop-color="#2163FF"/>
<stop offset="1" stop-color="#0B0A13"/>
</linearGradient>
<linearGradient id="paint1_linear_2_466" x1="175.788" y1="18.1345" x2="175.788" y2="321.893" gradientUnits="userSpaceOnUse">
<stop offset="0.0260417" stop-color="#0B0B0F"/>
<stop offset="0.505208" stop-color="#2163FF"/>
<stop offset="1" stop-color="#0B0A13"/>
</linearGradient>
<linearGradient id="paint2_linear_2_466" x1="255.76" y1="18.1345" x2="255.76" y2="321.893" gradientUnits="userSpaceOnUse">
<stop offset="0.0260417" stop-color="#0B0B0F"/>
<stop offset="0.505208" stop-color="#2163FF"/>
<stop offset="1" stop-color="#0B0A13"/>
</linearGradient>
<linearGradient id="paint3_linear_2_466" x1="14" y1="-61.0882" x2="14" y2="376.128" gradientUnits="userSpaceOnUse">
<stop offset="0.015625" stop-color="#0C0A17"/>
<stop offset="0.484375" stop-color="#3874FF"/>
<stop offset="1" stop-color="#0B0A13"/>
</linearGradient>
<linearGradient id="paint4_linear_2_466" x1="-49.3888" y1="149.181" x2="413.197" y2="149.181" gradientUnits="userSpaceOnUse">
<stop offset="0.015625" stop-color="#0C0A17"/>
<stop offset="0.484375" stop-color="#3874FF"/>
<stop offset="1" stop-color="#0B0A13"/>
</linearGradient>
</defs>
</svg>
